<?xml version="1.0" encoding="UTF-8" standalone="no"?>
<!-- Generator: Adobe Illustrator 27.5.0, SVG Export Plug-In . SVG Version: 6.00 Build 0)  -->

<svg
   version="1.1"
   id="Layer_1"
   x="0px"
   y="0px"
   viewBox="0 0 1440000 1440000"
   xml:space="preserve"
   width="1440000"
   height="1440000"
   xmlns="http://www.w3.org/2000/svg"
   xmlns:svg="http://www.w3.org/2000/svg"><defs
   id="defs1" />
<g
   id="XMLID_1_">
	

	
<path
   id="XMLID_80_"
   style="fill:#e6c705;stroke-width:4"
   d="m 306.1835,440.8215 c 0,27.82 10.272,54.076 28.616,74.304 18.992,-14.292 40.632,-24.956 63.656,-31.164 7.988,-50.836 33.008,-97.484 71.352,-132.536 1.8,-1.644 3.632,-3.248 5.476,-4.832 -17.34,-10.78 -37.368,-16.564 -58.316,-16.564 -61.084,0 -110.784,49.7 -110.784,110.792 z" /><path
   id="XMLID_64_"
   style="fill:#44c2e4;stroke-width:4"
   d="m 1005.2955,551.0855 c -3.804,-2.896 -6.576,-6.94 -7.904,-11.532 -20.372,-70.416 -85.856,-119.596 -159.244,-119.596 -13.516,0 -26.988,1.64 -40.036,4.876 -9.004,2.236 -18.452,-1.352 -23.712,-8.992 -34.252,-49.756 -90.696,-79.46 -150.988,-79.46 -45.848,0 -89.72,17.024 -123.532,47.932 -33.6,30.716 -54.48,72.472 -58.788,117.58 -0.744,7.8 -5.536,14.636 -12.612,18 -2.204,1.048 -4.424,2.192 -6.6,3.392 -1.86,1.028 -3.852,1.784 -5.928,2.248 -30.912,6.9 -58.992,24.272 -79.064,48.92 -20.628,25.328 -31.528,55.98 -31.528,88.648 0,77.744 63.612,140.996 141.8,140.996 h 472.028 c 78.188,0 141.8,-63.252 141.8,-140.996 -0.012,-44.24 -20.304,-85.068 -55.692,-112.016 z" /><path
   id="XMLID_49_"
   style="fill:#44c2e4;stroke-width:4"
   d="m 510.0115,1037.2375 c 2.16,0 4.36,-0.316 6.536,-0.984 11.764,-3.608 18.38,-16.064 14.772,-27.828 l -26.824,-87.532 c -3.604,-11.764 -16.068,-18.38 -27.828,-14.776 -11.764,3.608 -18.38,16.064 -14.772,27.828 l 26.824,87.532 c 2.936,9.596 11.756,15.76 21.292,15.76 z" /><path
   id="XMLID_48_"
   style="fill:#44c2e4;stroke-width:4"
   d="m 696.5715,1037.2375 c 2.16,0 4.36,-0.316 6.536,-0.984 11.764,-3.608 18.376,-16.064 14.772,-27.828 l -26.824,-87.532 c -3.604,-11.764 -16.064,-18.38 -27.828,-14.776 -11.764,3.608 -18.376,16.064 -14.772,27.828 l 26.824,87.532 c 2.936,9.596 11.756,15.76 21.292,15.76 z" /><path
   id="XMLID_47_"
   style="fill:#44c2e4;stroke-width:4"
   d="m 883.1315,1037.2375 c 2.16,0 4.36,-0.316 6.536,-0.984 11.764,-3.608 18.38,-16.064 14.772,-27.828 l -26.824,-87.532 c -3.604,-11.764 -16.068,-18.38 -27.828,-14.776 -11.764,3.608 -18.376,16.064 -14.772,27.828 l 26.824,87.532 c 2.936,9.596 11.756,15.76 21.292,15.76 z" /><path
   id="XMLID_46_"
   style="fill:#e6c705;stroke-width:4"
   d="m 394.6955,185.5375 v 62.684 c 0,12.304 9.976,22.28 22.28,22.28 12.304,0 22.28,-9.976 22.28,-22.28 v -62.684 c 0,-12.304 -9.976,-22.28 -22.28,-22.28 -12.304,0 -22.28,9.976 -22.28,22.28 z" /><path
   id="XMLID_45_"
   style="fill:#e6c705;stroke-width:4"
   d="m 320.6955,296.3055 c 3.78,0 7.608,-0.964 11.12,-2.988 10.656,-6.152 14.308,-19.78 8.156,-30.432 l -31.34,-54.288 c -6.152,-10.656 -19.78,-14.308 -30.432,-8.156 -10.656,6.152 -14.308,19.78 -8.156,30.432 l 31.34,54.288 c 4.12,7.148 11.612,11.144 19.312,11.144 z" /><path
   id="XMLID_44_"
   style="fill:#e6c705;stroke-width:4"
   d="m 261.3155,325.2255 -54.284,-31.344 c -10.656,-6.152 -24.28,-2.5 -30.432,8.156 -6.152,10.656 -2.5,24.28 8.156,30.436 l 54.284,31.344 c 3.508,2.024 7.34,2.988 11.12,2.988 7.7,0 15.188,-3.996 19.316,-11.144 6.148,-10.656 2.496,-24.28 -8.16,-30.436 z" /><path
   id="XMLID_43_"
   style="fill:#e6c705;stroke-width:4"
   d="m 246.6515,440.8215 c 0,-12.304 -9.976,-22.28 -22.28,-22.28 h -62.684 c -12.304,0 -22.28,9.976 -22.28,22.28 0,12.304 9.976,22.28 22.28,22.28 h 62.684 c 12.304,0 22.28,-9.976 22.28,-22.28 z" /><path
   id="XMLID_42_"
   style="fill:#e6c705;stroke-width:4"
   d="m 261.3155,556.4175 c 10.656,-6.152 14.308,-19.776 8.156,-30.432 -6.152,-10.656 -19.78,-14.308 -30.432,-8.156 l -54.284,31.34 c -10.656,6.152 -14.308,19.776 -8.156,30.436 4.128,7.148 11.616,11.144 19.316,11.144 3.78,0 7.612,-0.964 11.12,-2.988 z" /><path
   id="XMLID_41_"
   style="fill:#e6c705;stroke-width:4"
   d="m 502.1355,293.3175 c 3.508,2.024 7.34,2.988 11.12,2.988 7.7,0 15.188,-3.996 19.316,-11.144 l 31.34,-54.288 c 6.152,-10.656 2.5,-24.28 -8.156,-30.432 -10.66,-6.152 -24.28,-2.5 -30.436,8.156 l -31.34,54.288 c -6.152,10.656 -2.5,24.28 8.156,30.432 z" /></g>
</svg>
